# xmcd CD database file
#
# Track frame offsets:
#	150
#	27216
#	57192
#	89916
#	109721
#	132670
#	159393
#	193222
#	217948
#	247466
#	292185
#
# Disc length: 4186 seconds
#
# Revision: 0
# Processed by: cddbd v1.5.1PL0 Copyright (c) Steve Scherf et al.
# Submitted via: CDex 1.51
#
DISCID=b010580b
DTITLE=Bob Himmelberg - Where Do You Go From Here?
DYEAR=2000
DGENRE=Jazz
TTITLE0=Yeah
TTITLE1=Night Moods
TTITLE2=The Dolphin
TTITLE3=Straight Up And Down
TTITLE4=Where Do You Go From Here?
TTITLE5=Options
TTITLE6=Trance
TTITLE7=Trinkle, Tinkle
TTITLE8=I See Your Face Before Me
TTITLE9=All Of You
TTITLE10=Lazy Bird
EXTD=YEAR: 2000
EXTT0=
EXTT1=
EXTT2=
EXTT3=
EXTT4=
EXTT5=
EXTT6=
EXTT7=
EXTT8=
EXTT9=
EXTT10=
PLAYORDER=
